<?xml version="1.0" standalone="no"?>
<!DOCTYPE svg PUBLIC "-//W3C//DTD SVG 20010904//EN"
 "http://www.w3.org/TR/2001/REC-SVG-20010904/DTD/svg10.dtd">
<svg version="1.0" xmlns="http://www.w3.org/2000/svg"
 width="500.000000pt" height="500.000000pt" viewBox="0 0 500.000000 500.000000"
 preserveAspectRatio="xMidYMid meet">
<metadata>
Created by potrace 1.14, written by Peter Selinger 2001-2017
</metadata>
<g transform="translate(0.000000,500.000000) scale(0.100000,-0.100000)"
fill="#000000" stroke="none">
<path d="M2499 4425 c-482 -412 -966 -939 -1310 -1425 -120 -169 -272 -407
-318 -498 l-20 -39 41 -59 c114 -166 179 -252 350 -469 79 -99 148 -187 155
-196 11 -14 -17 -16 -315 -16 l-327 0 -75 -35 c-41 -20 -93 -44 -115 -53 -22
-10 -91 -42 -154 -72 -62 -29 -114 -53 -116 -53 -5 0 -175 -80 -175 -83 0 -1
350 -1 777 0 l777 1 145 -143 c80 -79 160 -156 176 -171 17 -14 48 -43 70 -63
122 -111 426 -351 445 -351 4 0 38 33 75 73 156 166 359 379 488 513 l138 142
797 0 c438 1 813 1 832 2 l35 1 -30 15 c-16 7 -75 35 -130 60 -55 25 -183 85
-285 132 l-185 85 -367 0 c-203 0 -368 2 -368 4 0 6 225 225 410 398 133 124
299 256 366 290 l43 22 -36 29 c-35 27 -164 136 -189 159 -6 5 -65 58 -130
117 -114 103 -337 326 -454 453 -388 422 -685 854 -845 1231 -21 49 -41 93
-45 97 -3 4 -63 -40 -131 -98z m-973 -2830 c19 -22 34 -42 34 -45 0 -3 -214
-5 -475 -5 -261 0 -475 1 -475 2 0 1 33 22 73 45 l73 43 368 0 368 0 34 -40z
m2786 1 c37 -22 65 -42 63 -45 -2 -5 -1004 -7 -1039 -2 -5 0 10 20 35 44 l44
42 415 0 415 0 67 -39z"/>
</g>
</svg>
